<svg width="57" height="16" viewBox="0 0 57 16" fill="none" xmlns="http://www.w3.org/2000/svg">
    <path
        d="M0.56 15H0.3V0.999999H0.98L9.3 13.94V0.999999H9.56V15H8.1L0.56 3.4V15ZM19.9155 15C19.0088 15 18.3888 14.8267 18.0555 14.48C17.7488 14.1867 17.5955 13.9333 17.5955 13.72V13.3C16.9421 14.4867 15.8955 15.08 14.4555 15.08C12.7755 15.08 11.8221 14.32 11.5955 12.8C11.5688 12.64 11.5555 12.48 11.5555 12.32C11.5555 12.1467 11.5821 11.96 11.6355 11.76C11.6888 11.56 11.8421 11.34 12.0955 11.1C12.6021 10.62 13.7155 10.3267 15.4355 10.22C15.8621 10.18 16.2555 10.16 16.6155 10.16C16.9755 10.16 17.3021 10.1733 17.5955 10.2V6.88C17.5688 6.86667 17.5688 6.80667 17.5955 6.7C17.6221 6.58 17.5955 6.43333 17.5155 6.26C17.4488 6.07333 17.3555 5.89333 17.2355 5.72C17.1155 5.54667 16.9021 5.4 16.5955 5.28C16.2888 5.14667 15.8888 5.08 15.3955 5.08C14.9021 5.08 14.3221 5.17333 13.6555 5.36C13.0021 5.53333 12.5221 5.70667 12.2155 5.88L12.1355 5.74C13.3221 5.19333 14.5288 4.92 15.7555 4.92C17.1288 4.92 18.0355 5.16667 18.4755 5.66C18.8221 6.04667 18.9955 6.45333 18.9955 6.88V13.58C18.9955 13.9667 19.0688 14.2667 19.2155 14.48C19.3755 14.68 19.5355 14.7867 19.6955 14.8L19.9155 14.84H20.5355V15H19.9155ZM14.7755 14.92C15.4821 14.92 16.1155 14.68 16.6755 14.2C17.2488 13.7067 17.5555 13.2333 17.5955 12.78V10.36C17.2355 10.3333 16.8688 10.32 16.4955 10.32C16.1355 10.32 15.7755 10.34 15.4155 10.38C14.4021 10.5 13.7421 10.7267 13.4355 11.06C13.1288 11.3933 12.9755 11.8533 12.9755 12.44C12.9755 12.5467 12.9821 12.6667 12.9955 12.8C13.1155 14.2133 13.7088 14.92 14.7755 14.92ZM21.9266 5.16V5H22.3466V3H23.7466V5H26.8066V5.16H23.7466V12.44C23.7466 13.3067 23.8399 13.9333 24.0266 14.32C24.2266 14.7067 24.6332 14.9 25.2466 14.9C25.8732 14.9 26.5066 14.7733 27.1466 14.52L27.2066 14.68C26.5399 14.9333 25.7732 15.06 24.9066 15.06C24.0532 15.06 23.4132 14.8867 22.9866 14.54C22.5599 14.18 22.3466 13.4733 22.3466 12.42V5.16H21.9266ZM36.5756 15C35.669 15 35.049 14.8267 34.7156 14.48C34.409 14.1867 34.2556 13.9333 34.2556 13.72V13.3C33.6023 14.4867 32.5556 15.08 31.1156 15.08C29.4356 15.08 28.4823 14.32 28.2556 12.8C28.229 12.64 28.2156 12.48 28.2156 12.32C28.2156 12.1467 28.2423 11.96 28.2956 11.76C28.349 11.56 28.5023 11.34 28.7556 11.1C29.2623 10.62 30.3756 10.3267 32.0956 10.22C32.5223 10.18 32.9156 10.16 33.2756 10.16C33.6356 10.16 33.9623 10.1733 34.2556 10.2V6.88C34.229 6.86667 34.229 6.80667 34.2556 6.7C34.2823 6.58 34.2556 6.43333 34.1756 6.26C34.109 6.07333 34.0156 5.89333 33.8956 5.72C33.7756 5.54667 33.5623 5.4 33.2556 5.28C32.949 5.14667 32.549 5.08 32.0556 5.08C31.5623 5.08 30.9823 5.17333 30.3156 5.36C29.6623 5.53333 29.1823 5.70667 28.8756 5.88L28.7956 5.74C29.9823 5.19333 31.189 4.92 32.4156 4.92C33.789 4.92 34.6956 5.16667 35.1356 5.66C35.4823 6.04667 35.6556 6.45333 35.6556 6.88V13.58C35.6556 13.9667 35.729 14.2667 35.8756 14.48C36.0356 14.68 36.1956 14.7867 36.3556 14.8L36.5756 14.84H37.1956V15H36.5756ZM31.4356 14.92C32.1423 14.92 32.7756 14.68 33.3356 14.2C33.909 13.7067 34.2156 13.2333 34.2556 12.78V10.36C33.8956 10.3333 33.529 10.32 33.1556 10.32C32.7956 10.32 32.4356 10.34 32.0756 10.38C31.0623 10.5 30.4023 10.7267 30.0956 11.06C29.789 11.3933 29.6356 11.8533 29.6356 12.44C29.6356 12.5467 29.6423 12.6667 29.6556 12.8C29.7756 14.2133 30.369 14.92 31.4356 14.92ZM41.2267 15C40.0534 15 39.3134 14.6933 39.0067 14.08C38.9401 13.9467 38.9067 13.8267 38.9067 13.72V0.0199997H40.3067V13.58C40.3067 13.9667 40.3801 14.2667 40.5267 14.48C40.6867 14.68 40.8467 14.7867 41.0067 14.8L41.2267 14.84H41.8467V15H41.2267ZM45.0041 15C44.4574 15 44.0374 14.88 43.7441 14.64C43.4641 14.4 43.3174 14.16 43.3041 13.92L43.2841 13.58V5H44.6841V13.58C44.6841 13.9667 44.7574 14.2667 44.9041 14.48C45.0641 14.68 45.2174 14.7867 45.3641 14.8L45.6041 14.84H46.2241V15H45.0041ZM43.4041 2.76C43.2441 2.6 43.1641 2.4 43.1641 2.16C43.1641 1.92 43.2441 1.72 43.4041 1.56C43.5641 1.38667 43.7641 1.3 44.0041 1.3C44.2441 1.3 44.4441 1.38667 44.6041 1.56C44.7774 1.72 44.8641 1.92 44.8641 2.16C44.8641 2.4 44.7774 2.6 44.6041 2.76C44.4441 2.92 44.2441 3 44.0041 3C43.7641 3 43.5641 2.92 43.4041 2.76ZM55.6967 15C54.7901 15 54.1701 14.8267 53.8367 14.48C53.5301 14.1867 53.3767 13.9333 53.3767 13.72V13.3C52.7234 14.4867 51.6767 15.08 50.2367 15.08C48.5567 15.08 47.6034 14.32 47.3767 12.8C47.3501 12.64 47.3367 12.48 47.3367 12.32C47.3367 12.1467 47.3634 11.96 47.4167 11.76C47.4701 11.56 47.6234 11.34 47.8767 11.1C48.3834 10.62 49.4967 10.3267 51.2167 10.22C51.6434 10.18 52.0367 10.16 52.3967 10.16C52.7567 10.16 53.0834 10.1733 53.3767 10.2V6.88C53.3501 6.86667 53.3501 6.80667 53.3767 6.7C53.4034 6.58 53.3767 6.43333 53.2967 6.26C53.2301 6.07333 53.1367 5.89333 53.0167 5.72C52.8967 5.54667 52.6834 5.4 52.3767 5.28C52.0701 5.14667 51.6701 5.08 51.1767 5.08C50.6834 5.08 50.1034 5.17333 49.4367 5.36C48.7834 5.53333 48.3034 5.70667 47.9967 5.88L47.9167 5.74C49.1034 5.19333 50.3101 4.92 51.5367 4.92C52.9101 4.92 53.8167 5.16667 54.2567 5.66C54.6034 6.04667 54.7767 6.45333 54.7767 6.88V13.58C54.7767 13.9667 54.8501 14.2667 54.9967 14.48C55.1567 14.68 55.3167 14.7867 55.4767 14.8L55.6967 14.84H56.3167V15H55.6967ZM50.5567 14.92C51.2634 14.92 51.8967 14.68 52.4567 14.2C53.0301 13.7067 53.3367 13.2333 53.3767 12.78V10.36C53.0167 10.3333 52.6501 10.32 52.2767 10.32C51.9167 10.32 51.5567 10.34 51.1967 10.38C50.1834 10.5 49.5234 10.7267 49.2167 11.06C48.9101 11.3933 48.7567 11.8533 48.7567 12.44C48.7567 12.5467 48.7634 12.6667 48.7767 12.8C48.8967 14.2133 49.4901 14.92 50.5567 14.92Z"
        fill="black" />
</svg>